# xmcd
#
# Track frame offsets:
# 150
# 7661
# 23943
# 32855
# 52053
# 75582
# 87168
# 123510
# 131405
# 147190
# 156372
# 166013
# 179402
# 194184
# 215981
# 236719
# 251653
#
# Disc length: 3494 seconds
#
#
# Revision: 0
# Processed by: cddbd v1.5.1PL0 Copyright (c) Steve Scherf et al.
# Submitted via: FreeRIP 2.90 
#
DISCID=ef0da411
DTITLE=Engvall, Bill - Dorkfish
DYEAR=1998
DGENRE=Comedy
TTITLE0=Factory Outlet Malls
TTITLE1=Flying
TTITLE2=Smokers
TTITLE3=Weather And News
TTITLE4=Bungee Jumping And Parachuting
TTITLE5=My Daughter's Growing Up
TTITLE6=T-Ball And Indian Guides
TTITLE7=Minivan
TTITLE8=Discovery Channel
TTITLE9=Dorkfish
TTITLE10=Whale Watching
TTITLE11=Broke Food
TTITLE12=More Here's Your Sign
TTITLE13=Bronc Busting
TTITLE14=Deer Hunting
TTITLE15=I'm A Cowboy
TTITLE16=Here's Your Sign Christmas
EXTD=
EXTT0=
EXTT1=
EXTT2=
EXTT3=
EXTT4=
EXTT5=
EXTT6=
EXTT7=
EXTT8=
EXTT9=
EXTT10=
EXTT11=
EXTT12=
EXTT13=
EXTT14=
EXTT15=
EXTT16=
PLAYORDER=
